<?xml version="1.0" standalone="no"?>
<!DOCTYPE svg PUBLIC "-//W3C//DTD SVG 20010904//EN"
 "http://www.w3.org/TR/2001/REC-SVG-20010904/DTD/svg10.dtd">
<svg version="1.0" xmlns="http://www.w3.org/2000/svg"
 width="165.000000pt" height="165.000000pt" viewBox="0 0 165.000000 165.000000"
 preserveAspectRatio="xMidYMid meet">
<metadata>
Created by potrace 1.11, written by Peter Selinger 2001-2013
</metadata>
<g transform="translate(0.000000,165.000000) scale(0.100000,-0.100000)"
fill="#000000" stroke="none">
<path d="M870 1358 c-48 -13 -110 -57 -137 -97 -31 -45 -43 -94 -43 -168 l0
-61 -50 -17 c-37 -12 -50 -22 -50 -36 0 -16 7 -19 50 -19 l51 0 -3 -295 c-3
-322 -2 -315 -60 -315 -23 0 -28 -4 -28 -25 l0 -25 201 0 c199 0 200 0 197 21
-2 17 -14 25 -52 34 -26 7 -52 19 -57 26 -5 8 -9 141 -9 297 l0 282 86 0 85 0
-3 33 -3 32 -82 3 -83 3 0 105 c0 146 26 199 90 179 22 -7 41 -62 37 -110 -2
-29 0 -30 45 -33 40 -3 52 1 73 22 49 49 22 131 -51 162 -37 16 -151 17 -204
2z"/>
</g>
</svg>
