<?xml version="1.0" standalone="no"?>
<!DOCTYPE svg PUBLIC "-//W3C//DTD SVG 20010904//EN"
 "http://www.w3.org/TR/2001/REC-SVG-20010904/DTD/svg10.dtd">
<svg version="1.0" xmlns="http://www.w3.org/2000/svg"
 width="700.000000pt" height="700.000000pt" viewBox="0 0 700.000000 700.000000"
 preserveAspectRatio="xMidYMid meet">
<metadata>
Created by potrace 1.11, written by Peter Selinger 2001-2013
</metadata>
<g transform="translate(0.000000,700.000000) scale(0.100000,-0.100000)"
fill="#000000" stroke="none">
<path d="M2140 4286 c-745 -1492 -1355 -2718 -1355 -2724 0 -9 336 -212 350
-212 1 0 52 -29 113 -64 61 -36 131 -76 154 -89 24 -13 153 -87 288 -164 135
-77 261 -150 280 -161 19 -11 67 -38 107 -61 39 -22 88 -50 109 -61 20 -12
114 -66 209 -120 95 -54 188 -108 207 -119 20 -10 131 -74 248 -141 117 -67
226 -130 244 -139 17 -10 115 -66 218 -125 l187 -108 1353 772 c744 425 1357
776 1362 781 9 8 -484 1007 -498 1008 -5 1 -119 -63 -255 -140 -135 -78 -266
-153 -291 -167 -45 -26 -1205 -688 -1270 -725 -19 -11 -64 -37 -100 -57 -36
-20 -105 -61 -155 -89 -49 -29 -102 -59 -117 -67 l-28 -15 0 323 0 323 68 37
c89 50 92 52 662 378 272 156 662 378 866 495 l371 211 -124 250 c-69 137
-126 251 -128 253 -2 2 -55 -26 -117 -62 -63 -36 -129 -74 -148 -85 -157 -88
-397 -225 -405 -232 -5 -4 -35 -21 -65 -37 -30 -16 -183 -103 -340 -193 -157
-90 -301 -172 -320 -183 -19 -11 -97 -55 -172 -98 -75 -44 -140 -79 -143 -79
-3 0 -5 144 -5 319 l0 320 183 104 c902 515 1263 721 1270 727 7 6 -222 483
-241 502 -4 4 -43 -14 -87 -39 -44 -25 -100 -57 -125 -71 -25 -14 -214 -122
-420 -240 -206 -118 -400 -228 -430 -245 -30 -16 -59 -33 -65 -37 -5 -4 -27
-17 -47 -29 l-38 -21 0 323 0 322 402 230 c220 127 428 245 460 263 33 17 68
38 78 45 17 12 -15 80 -458 969 -263 526 -479 957 -482 957 -3 0 -615 -1221
-1360 -2713z"/>
</g>
</svg>
